<?xml version="1.0" encoding="UTF-8" standalone="no"?>
<!-- Created with Inkscape (http://www.inkscape.org/) -->

<svg
   xmlns:dc="http://purl.org/dc/elements/1.1/"
   xmlns:cc="http://creativecommons.org/ns#"
   xmlns:rdf="http://www.w3.org/1999/02/22-rdf-syntax-ns#"
   xmlns:svg="http://www.w3.org/2000/svg"
   xmlns="http://www.w3.org/2000/svg"
   xmlns:sodipodi="http://sodipodi.sourceforge.net/DTD/sodipodi-0.dtd"
   xmlns:inkscape="http://www.inkscape.org/namespaces/inkscape"
   width="210mm"
   height="297mm"
   viewBox="0 0 210 297"
   version="1.1"
   id="svg8"
   inkscape:version="0.92.2 (5c3e80d, 2017-08-06)"
   sodipodi:docname="organs.svg">
  <defs
     id="defs2" />
  <sodipodi:namedview
     id="base"
     pagecolor="#ffffff"
     bordercolor="#666666"
     borderopacity="1.0"
     inkscape:pageopacity="0.0"
     inkscape:pageshadow="2"
     inkscape:zoom="1"
     inkscape:cx="765.88977"
     inkscape:cy="328.92594"
     inkscape:document-units="mm"
     inkscape:current-layer="layer1"
     showgrid="false"
     inkscape:window-width="1918"
     inkscape:window-height="1017"
     inkscape:window-x="1912"
     inkscape:window-y="1054"
     inkscape:window-maximized="0" />
  <metadata
     id="metadata5">
    <rdf:RDF>
      <cc:Work
         rdf:about="">
        <dc:format>image/svg+xml</dc:format>
        <dc:type
           rdf:resource="http://purl.org/dc/dcmitype/StillImage" />
        <dc:title></dc:title>
      </cc:Work>
    </rdf:RDF>
  </metadata>
  <g
     inkscape:label="Layer 1"
     inkscape:groupmode="layer"
     id="layer1">
    <path
       sodipodi:nodetypes="ccscccssccccsscccsccc"
       inkscape:connector-curvature="0"
       id="path3714"
       d="m 104.15693,251.31755 h 66.60441 c -7.86665,-6.23337 -8.39111,-67.15052 -8.39111,-77.52761 0,-9.62207 8.39111,-52.20454 8.39111,-52.20454 l 2.62222,13.63552 h 39.33331 c 0,0 -6.29333,-33.89399 -7.86665,-51.035783 C 203.27688,67.04335 159.02179,57.303696 150.10622,56.91411 141.19068,56.524525 131.75096,42.786602 119.68846,39.772325 v 0 H 92.801593 v 0 C 80.739092,42.786602 71.299393,56.524525 62.38384,56.91411 53.468294,57.303696 9.2132056,67.04335 7.6398715,84.185137 6.0665414,101.32693 -0.22678661,135.22092 -0.22678661,135.22092 H 39.106512 l 2.622217,-13.63552 c 0,0 8.391109,42.58247 8.391109,52.20454 0,10.37709 -0.524446,71.29424 -8.391109,77.52761 h 66.604361 z"
       style="fill:#f8e0c4;fill-opacity:1;stroke:none;stroke-width:0.31640935px;stroke-linecap:butt;stroke-linejoin:miter;stroke-opacity:1"
       inkscape:export-xdpi="96"
       inkscape:export-ydpi="96" />
    <g
       id="g4982"
       transform="matrix(1.6001566,-0.14411948,0.17679115,1.3044416,-315.04621,53.530123)"
       inkscape:export-xdpi="96"
       inkscape:export-ydpi="96">
      <path
         inkscape:connector-curvature="0"
         id="path4969"
         d="m 219.75757,118.79804 -0.5145,3.18051 c 0,0 -0.93544,3.78854 2.75956,2.99342 3.695,-0.79513 6.73519,-0.74836 6.73519,-0.74836 0,0 9.63507,-4.63044 11.97368,-7.29646 2.33861,-2.66601 9.9157,-4.39658 9.9157,-4.39658 0,0 5.7062,-0.65481 9.54152,-6.12715 3.83532,-5.47235 10.28988,-3.32083 10.28988,-3.32083 l -4.86431,-3.320821 -40.50469,1.824111 z"
         style="fill:#b32211;fill-opacity:1;stroke:none;stroke-width:0.26458332px;stroke-linecap:butt;stroke-linejoin:miter;stroke-opacity:1" />
      <path
         sodipodi:nodetypes="cccscccccscc"
         inkscape:connector-curvature="0"
         id="path4967"
         d="m 219.75757,118.79804 c 0,0 1.40316,-8.04481 1.02899,-9.35443 -0.37418,-1.30962 -2.01121,-8.69963 0.70158,-11.505955 2.71278,-2.80633 6.40779,-5.285256 9.49475,-5.378799 3.08696,-0.09354 10.19633,0.23386 14.63969,2.899873 4.44335,2.666015 14.63968,1.49671 14.63968,1.49671 0,0 7.67064,-0.04677 10.19634,6.127151 -5.98684,-3.274048 -9.77539,-1.87088 -9.77539,-1.87088 0,0 -7.81095,4.77076 -12.72203,4.49012 -8.37221,-0.93544 -12.62861,2.06638 -14.26551,1.87089 -6.72962,-0.8037 -8.22321,1.43703 -9.4012,4.39659 -1.73926,5.20461 -4.5369,6.82873 -4.5369,6.82873 z"
         style="fill:#db715c;fill-opacity:1;stroke:none;stroke-width:0.26458332px;stroke-linecap:butt;stroke-linejoin:miter;stroke-opacity:1" />
      <path
         inkscape:connector-curvature="0"
         id="path4971"
         d="m 224.97412,98.68601 c 0,0 -3.27405,1.6838 -1.02899,-1.870887 2.24507,-3.554685 10.94469,-2.993419 10.94469,-2.993419 0,0 5.61266,0.935442 6.5481,1.496708 0.93545,0.561266 1.21608,1.777344 1.21608,1.777344 0,0 0.65481,1.496708 -0.93544,1.964431 -1.59026,0.467722 -3.27405,0.935442 -3.55469,0.187089 -0.28063,-0.748355 -2.3386,-2.525696 -3.27405,-2.525696 -0.93544,0 -4.77076,-1.590255 -9.9157,1.96443 z"
         style="fill:#eea394;fill-opacity:1;stroke:none;stroke-width:0.26458332px;stroke-linecap:butt;stroke-linejoin:miter;stroke-opacity:1" />
      <path
         sodipodi:nodetypes="cccccc"
         inkscape:connector-curvature="0"
         id="path4973"
         d="m 247.33122,97.095756 c 0,0 -4.11595,1.870887 -0.18709,3.274054 3.92886,1.40316 8.2319,-0.841901 8.2319,-0.841901 0,0 3.78992,-0.856001 6.10778,-0.0321 4.96369,-0.102141 0.56439,-1.349748 0.56439,-1.349748 z"
         style="fill:#eea394;fill-opacity:1;stroke:none;stroke-width:0.26458332px;stroke-linecap:butt;stroke-linejoin:miter;stroke-opacity:1" />
      <path
         inkscape:connector-curvature="0"
         id="path4975"
         d="m 243.94583,94.527602 2.51354,1.058333 c 0,0 -3.83646,5.490105 -3.83646,6.283855 0,0.79375 -0.92604,4.10104 0.33073,4.7625 1.25677,0.66146 4.23334,3.43958 4.23334,3.43958 l -6.4823,-3.175 c 0,0 -0.46302,-1.19062 0,-2.18281 0.46303,-0.99219 2.57969,-5.093229 2.57969,-5.093229 0,0 1.12448,-3.439584 0.66146,-5.093229 z"
         style="fill:#e3a782;fill-opacity:1;stroke:none;stroke-width:0.26458332px;stroke-linecap:butt;stroke-linejoin:miter;stroke-opacity:1" />
    </g>
    <g
       id="g4742"
       transform="matrix(0.63090336,0,0,0.63090336,35.446295,45.025087)"
       inkscape:export-xdpi="96"
       inkscape:export-ydpi="96">
      <path
         sodipodi:nodetypes="ccccccccccc"
         inkscape:connector-curvature="0"
         id="path4652"
         d="m 110.92571,59.670954 c -3.73529,7.885694 -18.884131,11.620989 -18.884131,11.620989 0,0 -17.016442,-8.093182 -1.452629,-9.753342 15.56408,-1.660116 15.77139,-15.356326 15.77139,-15.356326 V -2.1693695 h 10.1247 V 46.182275 c 0,0 0.20731,13.69621 15.77139,15.356326 15.56381,1.66016 -1.45263,9.753342 -1.45263,9.753342 0,0 -15.14884,-3.735295 -18.88413,-11.620989 z"
         style="fill:#eb5149;fill-opacity:1;stroke:none;stroke-width:1.1621002px;stroke-linecap:butt;stroke-linejoin:miter;stroke-opacity:1" />
      <rect
         y="-2.1693637"
         x="105.61867"
         height="3.9428191"
         width="11.77188"
         id="rect4656"
         style="fill:#ff8d75;fill-opacity:1;stroke:none;stroke-width:1.7304033;stroke-linecap:round;stroke-miterlimit:4;stroke-dasharray:none;stroke-opacity:1" />
      <rect
         style="fill:#ff8d75;fill-opacity:1;stroke:none;stroke-width:1.7304033;stroke-linecap:round;stroke-miterlimit:4;stroke-dasharray:none;stroke-opacity:1"
         id="rect4658"
         width="11.77188"
         height="3.9428191"
         x="105.61867"
         y="4.803144" />
      <rect
         y="12.854733"
         x="105.80258"
         height="3.9428191"
         width="11.77188"
         id="rect4660"
         style="fill:#ff8d75;fill-opacity:1;stroke:none;stroke-width:1.7304033;stroke-linecap:round;stroke-miterlimit:4;stroke-dasharray:none;stroke-opacity:1" />
      <rect
         style="fill:#ff8d75;fill-opacity:1;stroke:none;stroke-width:1.7304033;stroke-linecap:round;stroke-miterlimit:4;stroke-dasharray:none;stroke-opacity:1"
         id="rect4662"
         width="11.77188"
         height="3.9428191"
         x="105.61867"
         y="21.072329" />
      <rect
         y="28.044838"
         x="105.61867"
         height="3.9428191"
         width="11.77188"
         id="rect4664"
         style="fill:#ff8d75;fill-opacity:1;stroke:none;stroke-width:1.7304033;stroke-linecap:round;stroke-miterlimit:4;stroke-dasharray:none;stroke-opacity:1" />
      <rect
         style="fill:#ff8d75;fill-opacity:1;stroke:none;stroke-width:1.7304033;stroke-linecap:round;stroke-miterlimit:4;stroke-dasharray:none;stroke-opacity:1"
         id="rect4666"
         width="11.77188"
         height="3.9428191"
         x="105.61867"
         y="35.639889" />
      <rect
         y="42.446388"
         x="105.43475"
         height="3.9428191"
         width="11.77188"
         id="rect4668"
         style="fill:#ff8d75;fill-opacity:1;stroke:none;stroke-width:1.7304033;stroke-linecap:round;stroke-miterlimit:4;stroke-dasharray:none;stroke-opacity:1" />
      <rect
         style="fill:#ff8d75;fill-opacity:1;stroke:none;stroke-width:1.78365886;stroke-linecap:round;stroke-miterlimit:4;stroke-dasharray:none;stroke-opacity:1"
         id="rect4670"
         width="12.507621"
         height="3.9428191"
         x="105.25078"
         y="48.96236" />
      <rect
         transform="rotate(90)"
         y="-113.16473"
         x="50.415009"
         height="3.9428191"
         width="10.375916"
         id="rect4672"
         style="fill:#ff8d75;fill-opacity:1;stroke:none;stroke-width:1.62456715;stroke-linecap:round;stroke-miterlimit:4;stroke-dasharray:none;stroke-opacity:1" />
      <rect
         transform="matrix(0.42066524,0.90721594,-0.92003659,0.39183245,0,0)"
         y="-64.923012"
         x="91.937859"
         height="3.2838886"
         width="10.750952"
         id="rect4674"
         style="fill:#ff8d75;fill-opacity:1;stroke:none;stroke-width:1.50917172;stroke-linecap:round;stroke-miterlimit:4;stroke-dasharray:none;stroke-opacity:1" />
      <rect
         transform="matrix(0.57595609,0.81748063,-0.85160455,0.52418478,0,0)"
         style="fill:#ff8d75;fill-opacity:1;stroke:none;stroke-width:1.52725136;stroke-linecap:round;stroke-miterlimit:4;stroke-dasharray:none;stroke-opacity:1"
         id="rect4676"
         width="10.889755"
         height="3.3201747"
         x="100.88947"
         y="-52.412205" />
      <rect
         style="fill:#ff8d75;fill-opacity:1;stroke:none;stroke-width:1.50917172;stroke-linecap:round;stroke-miterlimit:4;stroke-dasharray:none;stroke-opacity:1"
         id="rect4678"
         width="10.750952"
         height="3.2838886"
         x="4.6933436"
         y="136.54588"
         transform="matrix(-0.42066524,0.90721594,0.92003659,0.39183245,0,0)" />
      <rect
         y="129.34698"
         x="-15.912098"
         height="3.3201747"
         width="10.889755"
         id="rect4680"
         style="fill:#ff8d75;fill-opacity:1;stroke:none;stroke-width:1.52725136;stroke-linecap:round;stroke-miterlimit:4;stroke-dasharray:none;stroke-opacity:1"
         transform="matrix(-0.57595609,0.81748063,0.85160455,0.52418478,0,0)" />
    </g>
    <g
       id="g4712"
       transform="matrix(3.0920959,0,0,3.0920959,595.95791,-424.0995)"
       inkscape:export-xdpi="96"
       inkscape:export-ydpi="96">
      <path
         sodipodi:nodetypes="ccccsccsccc"
         style="fill:#8f524d;fill-opacity:1;stroke:none;stroke-width:0.26458332px;stroke-linecap:butt;stroke-linejoin:miter;stroke-opacity:1"
         d="m -173.66911,178.39914 0.26727,-6.1472 c 0,0 -0.0668,-3.8754 1.87088,-6.08038 1.93771,-2.20497 6.34766,-8.0849 6.34766,-8.0849 0,0 3.34086,-5.07812 3.80858,1.67043 0.46772,6.74856 0.83522,13.7978 0.83522,13.7978 l 0.10023,7.51695 c 0,0 -0.26727,1.67043 -1.9377,1.9377 -1.67044,0.26727 -10.7576,0.66818 -10.7576,0.66818 0,0 -0.86863,0 -0.80181,-0.93545 0.0668,-0.93544 0.26727,-4.34313 0.26727,-4.34313 z"
         id="path4634"
         inkscape:connector-curvature="0" />
      <path
         inkscape:connector-curvature="0"
         id="path4622"
         d="m -174.72745,178.39914 0.26727,-6.1472 c 0,0 -0.0668,-3.8754 1.87088,-6.08038 1.93771,-2.20497 6.34766,-8.0849 6.34766,-8.0849 0,0 4.47676,-5.27857 4.94448,1.46998 0.46772,6.74856 0,13.96484 0,13.96484 l -0.20045,7.55036 c 0,0 -0.26727,1.67043 -1.9377,1.9377 -1.67044,0.26727 -10.7576,0.66818 -10.7576,0.66818 0,0 -0.86863,0 -0.80181,-0.93545 0.0668,-0.93544 0.26727,-4.34313 0.26727,-4.34313 z"
         style="fill:#f4aea4;fill-opacity:1;stroke:none;stroke-width:0.26458332px;stroke-linecap:butt;stroke-linejoin:miter;stroke-opacity:1" />
      <path
         sodipodi:nodetypes="cc"
         inkscape:connector-curvature="0"
         id="path4624"
         d="m -173.79008,168.97868 c 0,0 1.88183,7.34834 12.46027,7.21473"
         style="fill:none;stroke:#db948e;stroke-width:0.5;stroke-linecap:round;stroke-linejoin:miter;stroke-miterlimit:4;stroke-dasharray:none;stroke-opacity:1" />
      <path
         inkscape:connector-curvature="0"
         id="path4626"
         d="m -161.39738,178.03165 c 0,0 -8.4524,-0.13363 -11.02487,2.57247"
         style="fill:none;stroke:#db948e;stroke-width:0.5;stroke-linecap:round;stroke-linejoin:miter;stroke-miterlimit:4;stroke-dasharray:none;stroke-opacity:1" />
      <path
         sodipodi:nodetypes="ccccccc"
         inkscape:connector-curvature="0"
         id="path4630"
         d="m -169.5157,163.89977 c 0,0 3.14042,-5.47902 4.51018,-5.7797 1.36975,-0.30068 0.63476,2.40543 0.63476,2.40543 0,0 -3.50791,7.04923 -3.87541,8.61944 -0.36749,1.57021 -2.01795,1.32447 -2.01795,1.32447 -2.00393,-0.24057 -2.93088,-2.0656 -2.09566,-2.80059 0.83522,-0.735 2.84408,-3.76905 2.84408,-3.76905 z"
         style="fill:#f4c8c5;fill-opacity:1;stroke:none;stroke-width:0.26458332px;stroke-linecap:butt;stroke-linejoin:miter;stroke-opacity:1" />
      <path
         sodipodi:nodetypes="cc"
         style="fill:none;stroke:#cb857b;stroke-width:0.5;stroke-linecap:round;stroke-linejoin:miter;stroke-miterlimit:4;stroke-dasharray:none;stroke-opacity:1"
         d="m -173.95713,169.74708 c 0,0 1.94865,6.84721 12.52709,6.7136"
         id="path4644"
         inkscape:connector-curvature="0" />
      <path
         sodipodi:nodetypes="cc"
         style="fill:none;stroke:#cb857b;stroke-width:0.5;stroke-linecap:round;stroke-linejoin:miter;stroke-miterlimit:4;stroke-dasharray:none;stroke-opacity:1"
         d="m -161.49761,178.29892 c 0,0 -8.01809,0 -10.15624,2.23838"
         id="path4646"
         inkscape:connector-curvature="0" />
    </g>
    <g
       id="g4703"
       transform="matrix(3.0920959,0,0,3.0920959,591.35413,-424.0995)"
       inkscape:export-xdpi="96"
       inkscape:export-ydpi="96">
      <path
         inkscape:connector-curvature="0"
         id="path4636"
         d="m -141.66021,178.39914 -0.26727,-6.1472 c 0,0 0.0668,-3.8754 -1.87088,-6.08038 -1.93771,-2.20497 -6.34766,-8.0849 -6.34766,-8.0849 0,0 -3.34086,-5.07812 -3.80858,1.67043 -0.46772,6.74856 -0.83522,13.7978 -0.83522,13.7978 l -0.10023,7.51695 c 0,0 0.26727,1.67043 1.9377,1.9377 1.67044,0.26727 10.7576,0.66818 10.7576,0.66818 0,0 0.86863,0 0.80181,-0.93545 -0.0668,-0.93544 -0.26727,-4.34313 -0.26727,-4.34313 z"
         style="fill:#8f524d;fill-opacity:1;stroke:none;stroke-width:0.26458332px;stroke-linecap:butt;stroke-linejoin:miter;stroke-opacity:1"
         sodipodi:nodetypes="ccccsccsccc" />
      <path
         style="fill:#f4aea4;fill-opacity:1;stroke:none;stroke-width:0.26458332px;stroke-linecap:butt;stroke-linejoin:miter;stroke-opacity:1"
         d="m -140.60187,178.39914 -0.26727,-6.1472 c 0,0 0.0668,-3.8754 -1.87088,-6.08038 -1.93771,-2.20497 -6.34766,-8.0849 -6.34766,-8.0849 0,0 -4.47676,-5.27857 -4.94448,1.46998 -0.46772,6.74856 0,13.96484 0,13.96484 l 0.20045,7.55036 c 0,0 0.26727,1.67043 1.9377,1.9377 1.67044,0.26727 10.7576,0.66818 10.7576,0.66818 0,0 0.86863,0 0.80181,-0.93545 -0.0668,-0.93544 -0.26727,-4.34313 -0.26727,-4.34313 z"
         id="path4638"
         inkscape:connector-curvature="0" />
      <path
         inkscape:connector-curvature="0"
         id="path4628"
         d="m -153.07862,168.81085 -0.0668,-8.58603 c 0,0 0.30068,-1.60362 1.43658,-1.63703 1.13589,-0.0334 1.63702,2.00452 0.80181,2.77292 -0.83522,0.7684 -1.00227,7.34991 -1.00227,7.34991 0,0 -0.70158,1.63703 -1.1693,0.10023 z"
         style="fill:#f4c8c5;fill-opacity:1;stroke:none;stroke-width:0.26458332px;stroke-linecap:butt;stroke-linejoin:miter;stroke-opacity:1" />
      <path
         style="fill:none;stroke:#db948e;stroke-width:0.5;stroke-linecap:round;stroke-linejoin:miter;stroke-miterlimit:4;stroke-dasharray:none;stroke-opacity:1"
         d="m -153.90029,175.3858 c 0,0 8.4524,-0.13363 11.02487,2.57247"
         id="path4648"
         inkscape:connector-curvature="0" />
      <path
         inkscape:connector-curvature="0"
         id="path4650"
         d="m -153.80006,175.65307 c 0,0 8.01809,0 10.15624,2.23838"
         style="fill:none;stroke:#cb857b;stroke-width:0.5;stroke-linecap:round;stroke-linejoin:miter;stroke-miterlimit:4;stroke-dasharray:none;stroke-opacity:1"
         sodipodi:nodetypes="cc" />
    </g>
    <g
       id="g4609"
       transform="matrix(0.70577392,0,0,0.70577392,155.43666,6.0180977)"
       inkscape:export-xdpi="96"
       inkscape:export-ydpi="96">
      <path
         style="fill:#f76e73;fill-opacity:1;stroke:none;stroke-width:0.26458332px;stroke-linecap:butt;stroke-linejoin:miter;stroke-opacity:1"
         d="m -67.486563,147.16444 c 0,0 -8.344641,-19.03263 7.156989,-21.70533 15.50163,-2.67269 14.454667,8.20544 14.454667,8.20544 l -4.43959,1.25333 c 0,0 -3.619598,-6.67815 -8.697728,-3.73818 -5.07812,2.93996 -3.274857,10.92284 -3.274857,10.92284 z"
         id="path4569"
         inkscape:connector-curvature="0"
         sodipodi:nodetypes="csccscc" />
      <path
         sodipodi:nodetypes="cscsc"
         inkscape:connector-curvature="0"
         id="path4563"
         d="m -74.688096,151.29014 c 0,0 -0.283484,-14.55208 18.237349,-14.2686 18.520833,0.28349 17.386905,17.29241 17.386905,17.29241 0,0 -2.645835,14.55208 -8.88244,15.96949 -6.236607,1.41741 -26.741814,-18.9933 -26.741814,-18.9933 z"
         style="fill:#ec9790;fill-opacity:1;stroke:none;stroke-width:0.26458332px;stroke-linecap:butt;stroke-linejoin:miter;stroke-opacity:1" />
      <path
         sodipodi:nodetypes="ccccccccccccccc"
         inkscape:connector-curvature="0"
         id="path4558"
         d="m -50.856003,115.82523 c -7.495303,2.06873 -7.589995,11.64877 -7.52215,10.05152 0.06785,-1.59725 -7.519763,-6.73281 -7.519763,-6.73281 l -2.653821,3.87045 c 3.570233,-0.18046 14.943134,14.25046 9.013356,7.43198 -5.929776,-6.81845 -14.626562,-4.34294 -14.626562,-4.34294 l 0.04185,3.33115 c 9.678931,-1.9217 14.959253,7.25036 16.360576,10.12814 -5.5689,4.775 -8.174337,10.22865 -8.174337,10.22865 l 12.418069,1.1675 c 0.219776,-10.73247 14.237297,-12.52434 14.237297,-12.52434 l -0.774547,-5.8826 c -4.801672,0.14039 -8.888167,1.44515 -12.29875,3.27864 -5.651318,-12.40035 3.221109,-16.12784 3.221109,-16.12784 z"
         style="fill:#d44891;fill-opacity:1;stroke:none;stroke-width:0.30743653px;stroke-linecap:butt;stroke-linejoin:miter;stroke-opacity:1" />
      <path
         style="fill:#bd387f;fill-opacity:1;stroke:none;stroke-width:0.30743653px;stroke-linecap:butt;stroke-linejoin:miter;stroke-opacity:1"
         d="m -56.817577,143.24799 c -5.5689,4.775 -4.772551,6.9686 -4.772551,6.9686 l 8.071343,0.74228 c 0.219776,-10.73247 14.237297,-12.52434 14.237297,-12.52434 l -0.7273,-2.95328 c -4.801672,0.14039 -6.998286,1.68138 -10.408869,3.51487 z"
         id="path4584"
         inkscape:connector-curvature="0"
         sodipodi:nodetypes="ccccccc" />
      <path
         sodipodi:nodetypes="cscscssc"
         inkscape:connector-curvature="0"
         id="path4556"
         d="m -55.71305,186.81421 c 0,0 -25.635115,-14.33696 -24.388422,-27.11556 1.246692,-12.7786 9.506031,-14.9603 9.506031,-14.9603 0,0 3.185463,-2.95308 12.121732,3.79067 5.441874,4.10671 5.825589,-11.83857 17.954724,0.41691 0,0 9.50603,16.05116 6.233462,24.3105 -3.272567,8.25934 -1.090857,8.41518 -6.389297,14.64865 -5.298445,6.23346 -15.03823,-1.09087 -15.03823,-1.09087 z"
         style="fill:#cc232a;fill-opacity:1;stroke:none;stroke-width:0.21817118px;stroke-linecap:butt;stroke-linejoin:miter;stroke-opacity:1" />
      <path
         inkscape:connector-curvature="0"
         id="path4567"
         d="m -55.838457,125.02338 c -0.748114,0.005 -1.555814,0.0511 -2.427759,0.14469 -0.132642,0.77174 -0.129825,1.12487 -0.112138,0.70848 0.0078,-0.18284 -0.0765,-0.41078 -0.226343,-0.66869 -0.550641,0.0655 -1.123371,0.14742 -1.724959,0.25115 -1.146137,0.19761 -2.158746,0.48635 -3.057178,0.84852 1.789372,1.65963 3.533785,3.56352 4.570781,4.76767 1.950484,-1.05096 3.589402,-0.77765 4.859134,-0.0532 -0.472283,-2.40086 -0.300555,-4.34132 0.18862,-5.89524 -0.633604,-0.0721 -1.322097,-0.10829 -2.070158,-0.10335 z m -8.611878,1.7756 c -1.48222,0.77973 -2.583182,1.79468 -3.384289,2.95589 2.574172,0.83216 4.653632,2.45564 6.260083,4.19148 0.546082,-1.08929 1.359153,-2.07031 2.562117,-2.76676 0.0277,-0.016 0.05459,-0.0279 0.08217,-0.0434 -0.18839,-0.21246 -0.361943,-0.40668 -0.608232,-0.68988 -1.543795,-1.77516 -3.24262,-2.91963 -4.911845,-3.64732 z"
         style="fill:#f76e73;fill-opacity:1;stroke:none;stroke-width:0.3074365px;stroke-linecap:butt;stroke-linejoin:miter;stroke-opacity:1" />
      <path
         sodipodi:nodetypes="csccccc"
         inkscape:connector-curvature="0"
         id="path4588"
         d="m -62.460565,137.49405 c 0,0 0.296466,-4.99469 3.644514,-6.41885 3.348045,-1.42416 5.932534,0.12185 8.501554,3.84268 l 2.642251,-1.01461 c 0,0 -3.194611,-7.61734 -10.110864,-5.76413 -6.916251,1.8532 -7.943523,4.22562 -8.646205,10.72507 z"
         style="fill:#eb5b5f;fill-opacity:1;stroke:none;stroke-width:0.26458332px;stroke-linecap:butt;stroke-linejoin:miter;stroke-opacity:1" />
      <ellipse
         transform="matrix(0.59106331,-0.80662517,0.80614437,0.5917189,0,0)"
         ry="1.1422198"
         rx="2.3381653"
         cy="17.378464"
         cx="-137.3045"
         id="path4576"
         style="fill:#a43091;fill-opacity:1;stroke:none;stroke-width:0.21039717" />
      <ellipse
         style="fill:#a43091;fill-opacity:1;stroke:none;stroke-width:0.20173101"
         id="ellipse4578"
         cx="-91.688461"
         cy="-89.615089"
         rx="2.2418573"
         ry="1.0951723"
         transform="matrix(-0.36371374,-0.93151077,0.93180616,-0.36295631,0,0)" />
      <ellipse
         transform="matrix(0.0505762,-0.99872021,0.99867876,0.05138813,0,0)"
         ry="0.79984516"
         rx="1.6373121"
         cy="-67.535706"
         cx="-131.33722"
         id="ellipse4580"
         style="fill:#a43091;fill-opacity:1;stroke:none;stroke-width:0.14733168" />
      <ellipse
         transform="matrix(-0.13010026,-0.99150084,0.99160629,-0.12929413,0,0)"
         ry="1.4784913"
         rx="3.0265253"
         cy="-57.243752"
         cx="-129.23175"
         id="ellipse4582"
         style="fill:#a43091;fill-opacity:1;stroke:none;stroke-width:0.27233848" />
      <path
         sodipodi:nodetypes="csscsc"
         inkscape:connector-curvature="0"
         id="path4594"
         d="m -46.680059,155.82589 c 0,0 -15.607023,-13.72335 -23.91538,-11.08754 -7.363346,2.33601 -13.504264,12.78843 -9.157536,19.592 4.346726,6.80358 5.858632,8.50447 6.80357,9.82739 0.944941,1.32291 -5.689632,-16.50231 2.834823,-20.22173 8.524454,-3.71942 23.434523,1.88988 23.434523,1.88988 z"
         style="fill:#f34656;fill-opacity:1;stroke:none;stroke-width:0.26458332px;stroke-linecap:butt;stroke-linejoin:miter;stroke-opacity:1" />
      <path
         sodipodi:nodetypes="ccssc"
         inkscape:connector-curvature="0"
         id="path4592"
         d="m -55.71305,186.81421 c 0,0 13.946682,-2.26213 13.001741,-4.71897 -0.94494,-2.45685 6.783581,-24.43981 -6.047618,-28.15923 -12.831201,-3.71942 -19.84375,-3.40178 -20.410715,-1.70089 -0.566965,1.70089 -12.85119,8.12649 -6.236607,18.89881 0,0 12.756838,13.73865 19.693199,15.68028"
         style="fill:#ff3c3a;fill-opacity:1;stroke:none;stroke-width:0.26458332px;stroke-linecap:butt;stroke-linejoin:miter;stroke-opacity:1" />
    </g>
    <g
       id="g4846"
       transform="matrix(0.28493747,0,0,0.28493747,61.321853,74.732343)"
       inkscape:export-xdpi="96"
       inkscape:export-ydpi="96"
       style="stroke-width:7.01908387;stroke-miterlimit:4;stroke-dasharray:none;stroke:#6c0000;stroke-opacity:1">
      <g
         style="stroke:#6c0000;stroke-width:11.83451182;stroke-linecap:round;stroke-miterlimit:4;stroke-dasharray:none;stroke-opacity:1"
         transform="matrix(0.59310295,0,0,0.59310295,88.444806,68.991051)"
         id="g4805">
        <path
           style="fill:none;stroke:#6c0000;stroke-width:11.83451182;stroke-linecap:round;stroke-linejoin:miter;stroke-miterlimit:4;stroke-dasharray:none;stroke-opacity:1"
           d="m 122.49109,115.99595 c 0,0 38.03099,32.08147 32.23124,86.71136"
           id="path4788"
           inkscape:connector-curvature="0" />
        <path
           style="fill:none;stroke:#6c0000;stroke-width:11.83451182;stroke-linecap:round;stroke-linejoin:miter;stroke-miterlimit:4;stroke-dasharray:none;stroke-opacity:1"
           d="m 141.43903,140.40678 c 0,0 -15.90253,11.5995 -11.22532,34.23723"
           id="path4790"
           inkscape:connector-curvature="0" />
        <path
           style="fill:none;stroke:#6c0000;stroke-width:11.83451182;stroke-linecap:round;stroke-linejoin:miter;stroke-miterlimit:4;stroke-dasharray:none;stroke-opacity:1"
           d="m 149.29676,155.74805 c 0,0 18.89595,2.61924 19.08304,26.56659"
           id="path4792"
           inkscape:connector-curvature="0" />
      </g>
      <g
         style="stroke:#6c0000;stroke-width:11.83451182;stroke-linecap:round;stroke-miterlimit:4;stroke-dasharray:none;stroke-opacity:1"
         transform="matrix(0.59310295,0,0,0.59310295,88.444806,68.991051)"
         id="g4835">
        <path
           style="fill:none;stroke:#6c0000;stroke-width:11.83451182;stroke-linecap:round;stroke-linejoin:miter;stroke-miterlimit:4;stroke-dasharray:none;stroke-opacity:1"
           d="m 218.89374,223.09997 c 0,0 -14.5098,-103.63865 -96.40265,-107.10402"
           id="path4794"
           inkscape:connector-curvature="0" />
        <path
           style="fill:none;stroke:#6c0000;stroke-width:11.83451182;stroke-linecap:round;stroke-linejoin:miter;stroke-miterlimit:4;stroke-dasharray:none;stroke-opacity:1"
           d="m 166.88309,130.49108 c 0,0 32.55343,-1.30962 34.23723,11.97368"
           id="path4796"
           inkscape:connector-curvature="0" />
        <path
           style="fill:none;stroke:#6c0000;stroke-width:11.83451182;stroke-linecap:round;stroke-linejoin:miter;stroke-miterlimit:4;stroke-dasharray:none;stroke-opacity:1"
           d="m 205.98462,180.44376 c 0,0 23.57317,0.93544 28.25039,21.51519"
           id="path4798"
           inkscape:connector-curvature="0" />
        <path
           style="fill:none;stroke:#6c0000;stroke-width:11.83451182;stroke-linecap:round;stroke-linejoin:miter;stroke-miterlimit:4;stroke-dasharray:none;stroke-opacity:1"
           d="m 196.25601,161.5478 c 0,0 -11.78658,15.90254 -3.55468,37.41773"
           id="path4800"
           inkscape:connector-curvature="0" />
      </g>
    </g>
    <g
       id="g4860"
       inkscape:export-xdpi="96"
       inkscape:export-ydpi="96"
       transform="rotate(-180,105.19103,60.979774)">
      <circle
         r="7.3320017"
         cy="60.979774"
         cx="105.19103"
         id="path4848"
         style="fill:#f2f2f2;fill-opacity:1;stroke:#cccccc;stroke-width:1.95799637;stroke-linecap:round;stroke-miterlimit:4;stroke-dasharray:none;stroke-opacity:1" />
      <g
         transform="matrix(0,1.2732488,-1.2732488,0,152.66016,-24.178893)"
         id="text4852"
         style="font-style:normal;font-weight:normal;font-size:10.58333302px;line-height:1.25;font-family:sans-serif;letter-spacing:0px;word-spacing:0px;fill:#cccccc;fill-opacity:1;stroke:none;stroke-width:0.26458332"
         aria-label="â†">
        <path
           inkscape:connector-curvature="0"
           id="path4854"
           style="fill:#cccccc;fill-opacity:1;stroke-width:0.26458332"
           d="m 62.82614,37.533665 v -0.465088 l 2.030884,-2.030884 0.620117,0.620117 -1.204061,1.204061 h 6.299357 v 0.8785 H 64.27308 l 1.204061,1.20406 -0.620117,0.620118 z" />
      </g>
    </g>
    <g
       id="g4941"
       inkscape:export-xdpi="96"
       inkscape:export-ydpi="96">
      <path
         inkscape:connector-curvature="0"
         id="path4873"
         d="m -2.5183287,181.65874 c 0,0 -4.8304607,0.50804 -4.6598592,-4.96624 0.1706025,-5.47428 6.65759902,-4.5624 6.65759902,-4.5624 0,0 -2.16806742,-5.11237 2.14736828,-8.17485 4.3154322,-3.06247 7.4335651,3.16009 7.4335651,3.16009 0,0 1.1241665,-5.50211 5.2724925,-4.22832 4.148328,1.27379 4.259639,5.08805 4.259639,5.08805 0,0 8.408104,-3.69581 10.172456,2.67638 1.76435,6.37219 -3.375855,7.58669 -3.375855,7.58669 0,0 2.690085,5.3908 -1.653177,7.49971 -4.343261,2.10891 -6.058949,-0.0801 -6.058949,-0.0801 0,0 -1.667021,1.9941 -5.791016,2.81188 -4.1239935,0.81778 -5.004423,-2.93731 -5.004423,-2.93731 0,0 -4.1309832,3.0938 -6.98817505,2.03927 -2.85719355,-1.05453 -2.41166565,-5.91282 -2.41166565,-5.91282 z"
         style="fill:#ff6600;stroke:#000000;stroke-width:0.5;stroke-linecap:butt;stroke-linejoin:miter;stroke-miterlimit:4;stroke-dasharray:none;stroke-opacity:1" />
      <path
         inkscape:connector-curvature="0"
         id="path4886"
         d="m -0.14548466,193.05181 11.21173866,-10.72123 10.020493,13.38402 -1.40147,-12.05262 15.626363,0.56059 -16.537315,-7.9183 9.319757,-14.36504 -10.84751,9.14923 -3.53592,-14.1231 -6.8747224,14.99306 -11.0456693,-3.64252 6.8671908,8.89933 -16.8876841,6.72704 18.9898853,-0.98103 z"
         style="fill:#ff0000;stroke:#000000;stroke-width:0.5;stroke-linecap:butt;stroke-linejoin:miter;stroke-opacity:1;stroke-miterlimit:4;stroke-dasharray:none" />
      <g
         transform="matrix(1.2225977,-0.17501389,0.17501389,1.2225977,-35.883405,-35.068762)"
         id="text4890"
         style="font-style:normal;font-variant:normal;font-weight:normal;font-stretch:normal;font-size:15.47659969px;line-height:1.25;font-family:'Comic Sans MS';-inkscape-font-specification:'Comic Sans MS';letter-spacing:0px;word-spacing:0px;fill:#000000;fill-opacity:1;stroke:none;stroke-width:0.5;stroke-miterlimit:4;stroke-dasharray:none"
         aria-label="POW!">
        <path
           inkscape:connector-curvature="0"
           id="path4892"
           style="font-style:normal;font-variant:normal;font-weight:bold;font-stretch:normal;font-family:'Comic Sans MS';-inkscape-font-specification:'Comic Sans MS Bold';stroke-width:0.5;stroke-miterlimit:4;stroke-dasharray:none"
           d="m -2.8220931,176.72009 q -0.1284679,0 -0.6347824,-0.0529 -0.045342,1.05797 -0.045342,3.47619 0,0.40052 -0.2796066,0.68768 -0.2796065,0.28717 -0.7103517,0.28717 -0.4307452,0 -0.7179087,-0.28717 -0.2796065,-0.28716 -0.2796065,-0.68768 V 178.035 q 0,-1.17133 0.1511386,-3.46864 0.1435818,-2.33509 0.1511387,-3.48374 0.00756,-1.9648 1.1033123,-1.88168 0.2569357,-0.068 0.7103517,-0.0982 0.453416,-0.0378 1.1033123,-0.0378 1.48115896,0 2.78095151,0.95973 1.44337429,1.07308 1.44337429,2.6147 0,1.93457 -1.53405749,3.07567 -1.36024802,1.00507 -3.24192441,1.00507 z m 0.3778466,-5.70548 q -0.2418218,0 -0.4307452,0.008 -0.1813664,0 -0.3098342,0.0151 0,0.35517 -0.00756,1.06552 -0.015114,0.83882 -0.1435817,2.6147 0.3854036,0.0605 0.5138715,0.0605 1.1788816,0 1.95724572,-0.55921 0.83126268,-0.597 0.83126268,-1.5794 0,-0.64234 -0.77836414,-1.1411 -0.74813646,-0.48364 -1.63229766,-0.48364 z" />
        <path
           inkscape:connector-curvature="0"
           id="path4894"
           style="font-style:normal;font-variant:normal;font-weight:bold;font-stretch:normal;font-family:'Comic Sans MS';-inkscape-font-specification:'Comic Sans MS Bold';stroke-width:0.5;stroke-miterlimit:4;stroke-dasharray:none"
           d="m 8.2488146,181.39783 q -2.2368523,0 -3.8086945,-1.28468 -1.6776392,-1.37536 -1.6776392,-3.55931 0,-2.56936 1.6096268,-4.6853 1.8061071,-2.38044 4.5492739,-2.38044 2.6373694,0 3.9522764,1.20911 1.314906,1.20911 1.314906,3.63489 0,2.56936 -1.481159,4.65507 -1.707867,2.41066 -4.4585904,2.41066 z m 0.672567,-9.8618 q -1.6851961,0 -2.8867485,1.6323 -1.1259831,1.5265 -1.1259831,3.38551 0,1.25445 0.9748444,2.04037 0.9370597,0.75569 2.3653202,0.75569 1.6625253,0 2.7733944,-1.63229 1.020186,-1.48872 1.020186,-3.38551 0,-1.58696 -0.710352,-2.20663 -0.680124,-0.58944 -2.4106614,-0.58944 z" />
        <path
           inkscape:connector-curvature="0"
           id="path4896"
           style="font-style:normal;font-variant:normal;font-weight:bold;font-stretch:normal;font-family:'Comic Sans MS';-inkscape-font-specification:'Comic Sans MS Bold';stroke-width:0.5;stroke-miterlimit:4;stroke-dasharray:none"
           d="m 30.179035,171.24131 q -0.128468,0.30984 -0.302277,0.76325 -0.128468,0.43831 -0.415631,1.2998 -0.430746,1.11087 -1.367805,3.23436 -0.959731,2.16129 -1.375362,3.22681 -0.309835,0.79348 -0.581884,1.26957 -0.355176,0.62722 -1.080642,0.62722 -0.430745,0 -0.778364,-0.23426 -0.408074,-0.27205 -0.438302,-0.71791 -0.347619,-0.86905 -0.438302,-1.4207 -0.332505,-1.61719 -0.921946,-4.85911 -0.491201,1.51894 -1.057971,2.72805 -0.846376,1.81367 -1.110869,2.84897 0.06801,0.16625 0.06801,0.35517 0,0.46853 -0.415632,0.76325 -0.362733,0.24938 -0.801035,0.24938 -0.551656,0 -0.914389,-0.27961 -0.39296,-0.30983 -0.408074,-0.84637 l -0.234265,-0.88416 q -0.249379,-1.17888 -0.816149,-3.52153 -0.498757,-1.791 -1.670082,-5.10093 -0.06801,-0.18893 -0.06801,-0.37785 0,-0.45342 0.347618,-0.71791 0.309835,-0.24182 0.748137,-0.24182 0.574327,0 0.914389,0.48364 0.188923,0.2645 0.430745,0.95973 0.740579,2.13106 1.670082,6.2118 0.604555,-1.4736 1.23178,-3.47619 0.506315,-1.63229 0.823706,-2.31998 0.755694,-1.64741 1.541615,-1.64741 0.740579,0 1.080641,0.80859 0.166253,0.38541 0.324948,1.39804 0.04534,0.30983 0.196481,1.51894 0.158695,1.29979 0.952173,4.73064 0.801035,-1.87412 2.153726,-5.40321 0.08313,-0.21159 0.392961,-1.39047 0.219151,-0.84638 0.551656,-1.33758 0.362733,-0.52898 0.967287,-0.52898 0.460973,0 0.763251,0.28716 0.302277,0.27961 0.302277,0.72546 0,0.1587 -0.264492,0.81615 z" />
        <path
           inkscape:connector-curvature="0"
           id="path4898"
           style="font-style:normal;font-variant:normal;font-weight:bold;font-stretch:normal;font-family:'Comic Sans MS';-inkscape-font-specification:'Comic Sans MS Bold';stroke-width:0.5;stroke-miterlimit:4;stroke-dasharray:none"
           d="m 32.58214,178.69245 q -0.423189,0 -0.702795,-0.26449 -0.27205,-0.2645 -0.27205,-0.66501 0,-0.29472 -0.02267,-0.87661 -0.01511,-0.58944 -0.01511,-0.88416 0,-1.04286 0.01511,-3.12857 0.02267,-2.08571 0.02267,-3.12857 0,-0.40052 0.279607,-0.66501 0.279606,-0.27205 0.695238,-0.27205 0.415631,0 0.695237,0.27205 0.279607,0.26449 0.279607,0.66501 v 8.01791 q 0,0.40051 -0.279607,0.66501 -0.272049,0.26449 -0.695237,0.26449 z m -0.02267,2.74317 q -0.453416,0 -0.846377,-0.48365 -0.355176,-0.44586 -0.355176,-0.83126 0,-0.39296 0.309835,-0.65745 0.309834,-0.2645 0.702794,-0.2645 0.453416,0 0.83882,0.48365 0.355176,0.44586 0.355176,0.8237 0,0.38541 -0.309834,0.65746 -0.302278,0.27205 -0.695238,0.27205 z" />
      </g>
      <path
         inkscape:connector-curvature="0"
         id="path4919"
         d="m 25.519247,182.36635 c -0.518928,-0.33536 -1.195334,-1.83216 -2.224291,-4.92206 -1.151618,-3.45824 -1.19783,-3.5356 -1.409883,-2.36028 -0.09145,0.50692 -0.387137,1.6991 -0.657069,2.64931 -0.642251,2.26082 -0.865353,3.44299 -0.772366,4.09257 0.142658,0.99657 -0.985071,1.67874 -2.121224,1.28313 -0.465004,-0.16191 -0.560781,-0.33537 -1.456836,-2.63863 -1.309205,-3.36523 -1.697509,-4.24432 -3.170282,-7.17731 -0.700246,-1.39453 -1.291767,-2.66537 -1.314485,-2.82407 -0.111944,-0.78201 1.123241,-1.40781 1.951097,-0.98852 0.507452,0.25703 1.454545,2.08467 2.93586,5.66543 0.985927,2.38327 1.244323,2.88475 1.367336,2.65367 0.08342,-0.15671 0.412298,-1.71587 0.730835,-3.46481 0.646892,-3.55179 1.05531,-4.94718 1.621672,-5.54059 0.479861,-0.50274 0.8176,-0.55451 1.404292,-0.21526 0.600452,0.34724 0.822435,0.82489 1.588628,3.41822 0.707612,2.39506 1.989056,5.98293 2.196821,6.1508 0.115167,0.0931 1.959251,-7.15025 1.909276,-7.49936 -0.0099,-0.0692 0.05871,-0.64321 0.152506,-1.27547 0.216094,-1.45673 0.669618,-2.22483 1.373134,-2.32554 0.70762,-0.10129 1.292471,0.22482 1.367709,0.76264 0.119825,0.85541 -0.7175,4.43011 -3.07338,13.12309 -0.283915,1.04761 -0.662304,1.47314 -1.404422,1.57938 -0.367304,0.0526 -0.781283,-0.008 -0.99494,-0.14642 z"
         style="fill:#ffff00;fill-opacity:1;stroke:#000000;stroke-width:0.61753035;stroke-linecap:butt;stroke-linejoin:miter;stroke-miterlimit:4;stroke-dasharray:none;stroke-opacity:1" />
      <path
         inkscape:connector-curvature="0"
         id="path4921"
         d="m 3.7372161,185.20805 c -1.8203227,-0.25125 -3.37071402,-1.17483 -4.33155797,-2.58035 -0.62025113,-0.90729 -0.70155423,-1.13247 -0.88764633,-2.45841 -0.2679276,-1.909 -0.024528,-3.44798 0.82552698,-5.21981 1.41853318,-2.95678 3.58059362,-4.37253 6.69288202,-4.38261 3.5333854,-0.0114 5.3280392,1.5902 5.8237052,5.19735 0.466695,3.39633 -0.931174,6.8717 -3.4090643,8.47558 -0.7024317,0.45466 -1.1337268,0.60213 -2.3878403,0.81646 -0.9310477,0.15914 -1.8421402,0.21854 -2.3260053,0.15179 z m 3.5034827,-3.04207 c 1.6488199,-1.16204 2.4987116,-3.67044 2.1288877,-6.28324 -0.3357486,-2.37226 -1.3131895,-3.1077 -3.8292554,-2.88128 -1.209601,0.10891 -1.4289673,0.17789 -2.1711866,0.68253 -1.4579122,0.99142 -2.47966905,3.15769 -2.47597892,5.24941 0.002052,1.16262 0.17016512,1.76019 0.71742142,2.55014 1.0429987,1.50555 3.9604505,1.85918 5.6301118,0.68244 z"
         style="fill:#ffff00;fill-opacity:1;stroke:#000000;stroke-width:0.61753035;stroke-linecap:butt;stroke-linejoin:miter;stroke-miterlimit:4;stroke-dasharray:none;stroke-opacity:1" />
      <path
         inkscape:connector-curvature="0"
         id="path4923"
         d="m 34.414046,177.34559 -0.45383,-0.34018 -0.742996,-5.19036 -0.742998,-5.19037 0.34017,-0.45383 c 0.415567,-0.55442 0.809689,-0.62818 1.432353,-0.26808 l 0.474144,0.27422 0.758328,5.29747 0.75833,5.29748 -0.323996,0.40525 c -0.424467,0.53093 -0.938783,0.5887 -1.499506,0.16839 z"
         style="fill:#ffff00;fill-opacity:1;stroke:#000000;stroke-width:0.61753035;stroke-linecap:butt;stroke-linejoin:miter;stroke-miterlimit:4;stroke-dasharray:none;stroke-opacity:1" />
      <path
         inkscape:connector-curvature="0"
         id="path4925"
         d="m 35.177044,180.89375 c -0.238335,-0.0795 -0.615884,-0.39161 -0.839001,-0.69349 l -0.405665,-0.54887 0.272867,-0.50101 c 0.463289,-0.85069 1.385062,-0.9093 2.028707,-0.129 0.484481,0.58734 0.537599,0.89997 0.233411,1.37374 -0.320011,0.49842 -0.769933,0.6723 -1.290314,0.49863 z"
         style="fill:#ffff00;fill-opacity:1;stroke:#000000;stroke-width:0.61753035;stroke-linecap:butt;stroke-linejoin:miter;stroke-miterlimit:4;stroke-dasharray:none;stroke-opacity:1" />
      <path
         inkscape:connector-curvature="0"
         id="path4927"
         d="m -10.54777,186.80236 c -0.394513,-0.29569 -0.402957,-0.33883 -0.887841,-4.53566 -0.719196,-6.22488 -0.898003,-8.57123 -0.689094,-9.04252 0.241115,-0.54395 0.660378,-0.70018 2.6559201,-0.98972 1.5990767,-0.23092 1.7698051,-0.22415 2.8571269,0.1302 3.2447736,1.05757 4.3040382,4.10673 2.3379086,6.7298 -0.8686825,1.15892 -2.026592,1.83865 -3.7749182,2.21596 l -1.2408267,0.26783 0.317709,2.21943 c 0.2863611,2.00044 0.2906522,2.26622 0.043496,2.69358 -0.3430737,0.59322 -1.0595199,0.73088 -1.6194642,0.31122 z m 3.2031042,-8.0328 c 1.1016099,-0.48282 1.866787,-1.69596 1.7193532,-2.72589 -0.053947,-0.37686 -0.2577183,-0.65047 -0.7708473,-1.0351 -0.7672129,-0.57506 -1.6235454,-0.75428 -2.8036617,-0.58677 l -0.7684001,0.10902 0.2127484,1.49629 c 0.1170129,0.82295 0.2215616,1.88497 0.2323181,2.36002 l 0.01956,0.86374 0.7906523,-0.11417 c 0.4348432,-0.0629 1.0505836,-0.22798 1.3682487,-0.36727 z"
         style="fill:#ffff00;fill-opacity:1;stroke:#000000;stroke-width:0.61753035;stroke-linecap:butt;stroke-linejoin:miter;stroke-miterlimit:4;stroke-dasharray:none;stroke-opacity:1" />
    </g>
    <path
       style="fill:#f2f2f2;fill-opacity:1;stroke:#cccccc;stroke-width:0.35495025;stroke-linecap:butt;stroke-linejoin:miter;stroke-miterlimit:4;stroke-dasharray:none;stroke-opacity:1"
       d="m 105.4131,77.890419 -5.41218,-7.83604 c 0,0 -0.265642,-0.8633 0.29883,-1.52737 0.56445,-0.66407 1.46095,-0.36524 1.46095,-0.36524 l 2.05862,2.05863 v -7.03916 c 0,0 0.0996,-1.26174 1.06252,-1.26174 0.96291,0 1.42775,1.19533 1.42775,1.19533 v 5.31257 -1.95901 c 0,0 0.28307,-0.51768 0.76369,-0.49805 0.9822,0.0401 1.06251,0.66407 1.06251,0.66407 v 2.55667 -1.8926 c 0,0 0.16602,-0.26563 0.79689,-0.26563 0.63086,0 1.02931,0.83009 1.02931,0.83009 v 2.19144 -1.92581 c 0,0 0.33203,-0.66407 0.9629,-0.49805 0.63087,0.16601 1.16213,0.79688 1.16213,0.79688 v 4.71491 l -0.92971,4.84772 z"
       id="path4954"
       inkscape:connector-curvature="0"
       sodipodi:nodetypes="ccscccscccscccscccccccc"
       inkscape:export-xdpi="96"
       inkscape:export-ydpi="96" />
    <g
       id="g5010">
      <rect
         style="fill:#cccccc;fill-opacity:1;stroke:none;stroke-width:0.16998696;stroke-linecap:round;stroke-miterlimit:4;stroke-dasharray:none;stroke-opacity:1"
         id="rect4746"
         width="42.639584"
         height="10.040167"
         x="95.244415"
         y="134.45399"
         rx="1.6752304"
         ry="1.7248641" />
      <rect
         ry="1.6347303"
         rx="1.6347303"
         y="134.41649"
         x="95.720184"
         height="9.5155115"
         width="41.608738"
         id="rect4744"
         style="fill:#f2f2f2;fill-opacity:1;stroke:none;stroke-width:0.16347337;stroke-linecap:round;stroke-miterlimit:4;stroke-dasharray:none;stroke-opacity:1" />
      <flowRoot
         transform="matrix(0.15859186,0,0,0.15859186,45.237511,48.377283)"
         style="font-style:normal;font-weight:normal;font-size:40px;line-height:1.25;font-family:sans-serif;text-align:center;letter-spacing:0px;word-spacing:0px;text-anchor:middle;fill:#b3b3b3;fill-opacity:1;stroke:none"
         id="flowRoot4748"
         xml:space="preserve"><flowRegion
           style="text-align:center;text-anchor:middle;fill:#b3b3b3"
           id="flowRegion4750"><rect
             style="text-align:center;text-anchor:middle;fill:#b3b3b3"
             y="548.51965"
             x="318.31818"
             height="60"
             width="262.36365"
             id="rect4752" /></flowRegion><flowPara
           id="flowPara4754">Space</flowPara></flowRoot>    </g>
    <g
       id="g5002"
       inkscape:export-xdpi="96"
       inkscape:export-ydpi="96">
      <rect
         ry="2.0826924"
         rx="2.0404675"
         y="149.70062"
         x="61.973473"
         height="14.68213"
         width="42.450638"
         id="rect4996"
         style="fill:#cccccc;fill-opacity:1;stroke:none;stroke-width:0.20510456;stroke-linecap:round;stroke-miterlimit:4;stroke-dasharray:none;stroke-opacity:1" />
      <rect
         style="fill:#f2f2f2;fill-opacity:1;stroke:none;stroke-width:0.19898848;stroke-linecap:round;stroke-miterlimit:4;stroke-dasharray:none;stroke-opacity:1"
         id="rect4990"
         width="41.608738"
         height="14.099184"
         x="62.394424"
         y="149.83711"
         rx="2"
         ry="2" />
      <text
         id="text4994"
         y="153.27306"
         x="63.445084"
         style="font-style:normal;font-weight:normal;font-size:3.001122px;line-height:1.25;font-family:sans-serif;letter-spacing:0px;word-spacing:0px;fill:#b3b3b3;fill-opacity:1;stroke:none;stroke-width:0.07502805"
         xml:space="preserve"><tspan
           style="fill:#b3b3b3;fill-opacity:1;stroke-width:0.07502805"
           y="153.27306"
           x="63.445084"
           id="tspan4992"
           sodipodi:role="line">Type:</tspan></text>
    </g>
    <path
       style="fill:#a73b34;fill-opacity:1;stroke:none;stroke-width:0.83767551px;stroke-linecap:butt;stroke-linejoin:miter;stroke-opacity:1"
       d="m 93.96662,163.65547 c 0,0 -10.889772,0 -11.099171,19.89481 -0.209591,19.89478 14.240463,15.70639 14.240463,15.70639 0,0 4.482898,-3.48388 4.112698,-7.03783 -0.37021,-3.55398 -2.221224,-5.47905 -2.221224,-5.47905 0,0 -1.702939,-1.92504 -1.480811,-5.03476 0.222255,-3.10973 0.370203,-5.77516 1.702938,-7.40409 1.332707,-1.62887 2.739497,-4.3684 1.999097,-5.99727 -0.74042,-1.62891 -1.995045,-6.26069 -7.25399,-4.6482 z"
       id="path5033"
       inkscape:connector-curvature="0" />
    <path
       inkscape:connector-curvature="0"
       id="path5035"
       d="m 210.97398,163.65547 c 0,0 10.88977,0 11.09917,19.89481 0.2096,19.89478 -14.24047,15.70639 -14.24047,15.70639 0,0 -4.48289,-3.48388 -4.11269,-7.03783 0.3702,-3.55398 2.22122,-5.47905 2.22122,-5.47905 0,0 1.70294,-1.92504 1.48081,-5.03476 -0.22225,-3.10973 -0.3702,-5.77516 -1.70294,-7.40409 -1.3327,-1.62887 -2.73949,-4.3684 -1.99909,-5.99727 0.74041,-1.62891 1.99504,-6.26069 7.25399,-4.6482 z"
       style="fill:#a73b34;fill-opacity:1;stroke:none;stroke-width:0.83767551px;stroke-linecap:butt;stroke-linejoin:miter;stroke-opacity:1" />
    <path
       inkscape:connector-curvature="0"
       id="path5041"
       d="m 183.925,163.65547 c 0,0 -10.88977,0 -11.09917,19.89481 -0.20959,19.89478 14.24047,15.70639 14.24047,15.70639 0,0 4.4829,-3.48388 4.1127,-7.03783 -0.37021,-3.55398 -2.22123,-5.47905 -2.22123,-5.47905 0,0 -1.70294,-1.92504 -1.48081,-5.03476 0.22226,-3.10973 0.3702,-5.77516 1.70294,-7.40409 1.33271,-1.62887 2.7395,-4.3684 1.9991,-5.99727 -0.74042,-1.62891 -1.99505,-6.26069 -7.254,-4.6482 z"
       style="fill:#a73b34;fill-opacity:1;stroke:none;stroke-width:0.83767551px;stroke-linecap:butt;stroke-linejoin:miter;stroke-opacity:1" />
    <path
       style="fill:#b4413d;fill-opacity:1;stroke:none;stroke-width:0.737234px;stroke-linecap:butt;stroke-linejoin:miter;stroke-opacity:1"
       d="m 184.02379,165.21361 c 0,0 -9.24322,0 -9.42096,18.15492 -0.1779,18.15489 12.08728,14.3328 12.08728,14.3328 0,0 3.80508,-3.1792 3.49086,-6.42234 -0.31423,-3.24317 -1.88538,-4.99989 -1.88538,-4.99989 0,0 -1.44545,-1.75668 -1.2569,-4.59445 0.18864,-2.83777 0.31422,-5.27009 1.44544,-6.75657 1.13121,-1.48641 2.32528,-3.98636 1.69684,-5.47278 -0.62847,-1.48645 -1.6934,-5.71317 -6.15718,-4.24169 z"
       id="path5045"
       inkscape:connector-curvature="0" />
    <path
       style="fill:#c35043;fill-opacity:1;stroke:none;stroke-width:0.26458332px;stroke-linecap:butt;stroke-linejoin:miter;stroke-opacity:1"
       d="m 173.52556,181.03712 c 0,0 1.61239,-18.14428 12.81559,-16.4638 3.74177,0.56126 -0.56127,5.05139 -0.56127,5.05139 0,0 -4.55679,0.86639 -9.16735,11.97367 -2.05798,4.95785 -3.08697,-0.56126 -3.08697,-0.56126 z"
       id="path5037"
       inkscape:connector-curvature="0"
       sodipodi:nodetypes="cscsc" />
    <path
       style="fill:#b4413d;fill-opacity:1;stroke:none;stroke-width:0.74537313px;stroke-linecap:butt;stroke-linejoin:miter;stroke-opacity:1"
       d="m 212.07248,164.80315 c 0,0 9.21577,0 9.39298,18.61326 0.17738,18.61323 -12.0514,14.69464 -12.0514,14.69464 0,0 -3.79377,-3.25946 -3.48048,-6.58448 0.31329,-3.32504 1.87977,-5.12611 1.87977,-5.12611 0,0 1.44117,-1.80103 1.25318,-4.71044 -0.18809,-2.90941 -0.31329,-5.40314 -1.44116,-6.92715 -1.12784,-1.52394 -2.31837,-4.087 -1.69179,-5.61094 0.6266,-1.52399 1.68836,-5.8574 6.1389,-4.34878 z"
       id="path5047"
       inkscape:connector-curvature="0" />
    <ellipse
       style="fill:#c35043;fill-opacity:1;stroke:none;stroke-width:0.73059922;stroke-linecap:butt;stroke-linejoin:miter;stroke-miterlimit:4;stroke-dasharray:none;stroke-opacity:1"
       id="path5039"
       cx="27.525961"
       cy="266.44571"
       rx="4.4096732"
       ry="1.7421552"
       transform="matrix(0.68815688,-0.72556193,0.70924608,0.70496099,0,0)" />
  </g>
</svg>
